<mxfile host="app.diagrams.net" agent="Mozilla/5.0 (X11; Linux x86_64; rv:128.0) Gecko/20100101 Firefox/128.0" version="25.0.3">
  <diagram name="Page-1" id="eVZXr5p9kDonHc2u2Mo0">
    <mxGraphModel dx="1434" dy="795" grid="1" gridSize="10" guides="1" tooltips="1" connect="1" arrows="1" fold="1" page="1" pageScale="1" pageWidth="850" pageHeight="1100" math="0" shadow="0">
      <root>
        <mxCell id="0" />
        <mxCell id="1" parent="0" />
        <mxCell id="iOSRRkHD-fxjfYmqYRO--1" value="&lt;div align=&quot;left&quot;&gt;&lt;font style=&quot;font-size: 14px;&quot;&gt;&lt;b&gt;Requirements&lt;br&gt;&lt;/b&gt;&lt;/font&gt;&lt;br&gt;- Should be able to view account&lt;br&gt;- Should be able to create account&lt;br&gt;- Should be able to edit an account (All related tnx should be updated)&lt;br&gt;- Should be able to delete an account. (with warning that all transaction go!)&lt;br&gt;- Should be able see the active imports&lt;br&gt;- Should be able to upload PDF/XLSX files&lt;br&gt;- Should be able to see the transactions in each import&lt;br&gt;- Should be able to delete the import&lt;br&gt;- Should be able to edit each transaction in the import&lt;/div&gt;&lt;div align=&quot;left&quot;&gt;- Should be able to remove each transaction in the import&lt;br&gt;- Should be able to &quot;approve&quot; imports&lt;br&gt;- Should be able to manually add an FD&lt;br&gt;- Should ...&amp;nbsp;&amp;nbsp;&amp;nbsp;&amp;nbsp;&amp;nbsp;&amp;nbsp;&amp;nbsp;&amp;nbsp;&amp;nbsp;&amp;nbsp;&amp;nbsp;&amp;nbsp;&amp;nbsp;&amp;nbsp;&amp;nbsp;&amp;nbsp;&amp;nbsp;&amp;nbsp;&amp;nbsp;&amp;nbsp;&amp;nbsp;&amp;nbsp;&amp;nbsp;&amp;nbsp;&amp;nbsp;&amp;nbsp; Mutual Fund&lt;br&gt;- Should ...&amp;nbsp;&amp;nbsp;&amp;nbsp;&amp;nbsp;&amp;nbsp;&amp;nbsp;&amp;nbsp;&amp;nbsp;&amp;nbsp;&amp;nbsp;&amp;nbsp;&amp;nbsp;&amp;nbsp;&amp;nbsp;&amp;nbsp;&amp;nbsp;&amp;nbsp;&amp;nbsp;&amp;nbsp;&amp;nbsp;&amp;nbsp;&amp;nbsp;&amp;nbsp;&amp;nbsp;&amp;nbsp;&amp;nbsp; Credit card&lt;br&gt;- Should ...&amp;nbsp;&amp;nbsp;&amp;nbsp;&amp;nbsp;&amp;nbsp;&amp;nbsp;&amp;nbsp;&amp;nbsp;&amp;nbsp;&amp;nbsp;&amp;nbsp;&amp;nbsp;&amp;nbsp;&amp;nbsp;&amp;nbsp;&amp;nbsp;&amp;nbsp;&amp;nbsp;&amp;nbsp;&amp;nbsp;&amp;nbsp;&amp;nbsp;&amp;nbsp;&amp;nbsp;&amp;nbsp;&amp;nbsp; Bank transaction&lt;br&gt;- Should ...&amp;nbsp;&amp;nbsp;&amp;nbsp;&amp;nbsp;&amp;nbsp;&amp;nbsp;&amp;nbsp;&amp;nbsp;&amp;nbsp;&amp;nbsp;&amp;nbsp;&amp;nbsp;&amp;nbsp;&amp;nbsp;&amp;nbsp;&amp;nbsp;&amp;nbsp;&amp;nbsp;&amp;nbsp;&amp;nbsp;&amp;nbsp;&amp;nbsp;&amp;nbsp;&amp;nbsp;&amp;nbsp;&amp;nbsp; &lt;/div&gt;" style="rounded=0;whiteSpace=wrap;html=1;align=left;" parent="1" vertex="1">
          <mxGeometry x="40" y="180" width="440" height="260" as="geometry" />
        </mxCell>
        <mxCell id="iOSRRkHD-fxjfYmqYRO--10" value="" style="rounded=0;whiteSpace=wrap;html=1;" parent="1" vertex="1">
          <mxGeometry x="40" y="480" width="430" height="340" as="geometry" />
        </mxCell>
        <mxCell id="iOSRRkHD-fxjfYmqYRO--2" value="&lt;div align=&quot;left&quot;&gt;GET api/v1/fiscal_account&lt;br&gt;POST(create) api/v1/fiscal_account/&lt;br&gt;PATCH api/v1/fiscal_account/{id}&lt;br&gt;DELETE api/v1/fiscal_account&lt;/div&gt;" style="rounded=0;whiteSpace=wrap;html=1;align=left;" parent="1" vertex="1">
          <mxGeometry x="50" y="490" width="220" height="70" as="geometry" />
        </mxCell>
        <mxCell id="iOSRRkHD-fxjfYmqYRO--5" value="GET api/v1/statements/import&lt;br&gt;&lt;div align=&quot;left&quot;&gt;GET api/v1/statements/import/{id}/&lt;br&gt;POST(Create) api/v1/statements/import/{id}/&lt;br&gt;POST(Approve) api/v1/statements/import/{id}/&lt;/div&gt;DELETE api/v1/statements/import/{id}/" style="rounded=0;whiteSpace=wrap;html=1;align=left;" parent="1" vertex="1">
          <mxGeometry x="50" y="570" width="300" height="80" as="geometry" />
        </mxCell>
        <mxCell id="iOSRRkHD-fxjfYmqYRO--7" value="&lt;div align=&quot;left&quot;&gt;GET api/v1/statements/import/{id}/transaction/{id}&lt;br&gt;&lt;/div&gt;PATCH api/v1/statements/import/{id}/{id}/transaction/{id}&lt;br&gt;DELETE api/v1/statements/import/{id}/{id}/transaction/{id}" style="rounded=0;whiteSpace=wrap;html=1;align=left;" parent="1" vertex="1">
          <mxGeometry x="50" y="660" width="330" height="50" as="geometry" />
        </mxCell>
        <mxCell id="iOSRRkHD-fxjfYmqYRO--8" value="&lt;div align=&quot;left&quot;&gt;GET api/v1/transactions/&lt;/div&gt;GET api/v1/transactions/{id}&lt;br&gt;POST(create) api/v1/transactions/{id}&lt;br&gt;PATCH api/v1/transactions/{id}&lt;div&gt;DELETE api/v1/transcations/{id}&lt;br&gt;&lt;/div&gt;" style="rounded=0;whiteSpace=wrap;html=1;align=left;" parent="1" vertex="1">
          <mxGeometry x="50" y="720" width="330" height="80" as="geometry" />
        </mxCell>
        <mxCell id="iOSRRkHD-fxjfYmqYRO--11" value="User Interactions" style="text;html=1;align=center;verticalAlign=middle;whiteSpace=wrap;rounded=0;" parent="1" vertex="1">
          <mxGeometry x="360" y="490" width="100" height="30" as="geometry" />
        </mxCell>
      </root>
    </mxGraphModel>
  </diagram>
</mxfile>
